<svg xmlns:dc="http://purl.org/dc/elements/1.1/" xmlns:cc="http://creativecommons.org/ns#" xmlns:rdf="http://www.w3.org/1999/02/22-rdf-syntax-ns#" xmlns:svg="http://www.w3.org/2000/svg" xmlns="http://www.w3.org/2000/svg" xmlns:xlink="http://www.w3.org/1999/xlink" id="svg395359" viewBox="0 0 1024 768" height="768px" width="1024px" version="1.1">
  <metadata id="metadata395365">
    <rdf:rdf>
      <cc:work rdf:about="">
        <dc:format>image/svg+xml</dc:format>
        <dc:type rdf:resource="http://purl.org/dc/dcmitype/StillImage"></dc:type>
      </cc:work>
    </rdf:rdf>
  </metadata>
  <defs id="defs395363"></defs>
  <linearGradient spreadMethod="pad" y2="30%" x2="-10%" y1="120%" x1="30%" id="3d_gradient2-logo-17a8e342-faba-4ce2-97dc-1b8c1ef29e89">
    <stop id="stop395340" stop-opacity="1" stop-color="#ffffff" offset="0%"></stop>
    <stop id="stop395342" stop-opacity="1" stop-color="#000000" offset="100%"></stop>
  </linearGradient>
  <linearGradient gradientTransform="rotate(-30)" spreadMethod="pad" y2="30%" x2="-10%" y1="120%" x1="30%" id="3d_gradient3-logo-17a8e342-faba-4ce2-97dc-1b8c1ef29e89">
    <stop id="stop395345" stop-opacity="1" stop-color="#ffffff" offset="0%"></stop>
    <stop id="stop395347" stop-opacity="1" stop-color="#cccccc" offset="50%"></stop>
    <stop id="stop395349" stop-opacity="1" stop-color="#000000" offset="100%"></stop>
  </linearGradient>
  <g id="logo-group">
    <image xlink:href="" id="container" x="272" y="144" width="480" height="480" style="display: none;" transform="translate(0 0)"></image>
    <g id="logo-center" transform="translate(0 0)">
      <image xlink:href="" id="icon_container" x="0" y="0" style="display: none;"></image>
      <g id="slogan" style="font-style:normal;font-weight:normal;font-size:32px;line-height:1;font-family:'Brandmark Sans 23 Spectrum';font-variant-ligatures:none;text-align:center;text-anchor:middle" transform="translate(0 0)">
        <path id="path395367" style="font-style:normal;font-weight:normal;font-size:32px;line-height:1;font-family:'Brandmark Sans 23 Spectrum';font-variant-ligatures:none;text-align:center;text-anchor:middle" d="m 444.7645,0 1.728,-8.32 h 8.48 l 0.736,-3.488 0.448,-2.176 0.032,-0.256 h -8.448 l 0.48,-2.144 h 10.56 l 1.248,-5.92 h -16.608 L 438.7485,0 Z m 18.848,-11.552 1.248,-5.92 -2.4,-2.432 -1.248,5.92 h -4.736 l 2.144,2.176 -0.064,0.256 -0.448,2.144 -0.736,3.488 h -8.448 l -1.76,8.32 h -6.016 l 2.4,2.432 h 6.016 l 1.76,-8.32 h 8.448 l 1.248,-5.92 -2.144,-2.144 z" stroke-width="0" stroke-linejoin="miter" stroke-miterlimit="2" fill="#2a82e4" stroke="#2a82e4" transform="translate(5.684341886080802e-14 576.76496) translate(53.161229999999875 -24.941440000000004) scale(4.36) translate(-438.7485 22.304)"></path>
        <path id="path395369" style="font-style:normal;font-weight:normal;font-size:32px;line-height:1;font-family:'Brandmark Sans 23 Spectrum';font-variant-ligatures:none;text-align:center;text-anchor:middle" d="m 463.2265,0 4.704,-22.304 h -6.016 L 457.2105,0 Z m 9.536,-17.472 -2.4,-2.432 -4.704,22.304 h -6.016 l 2.4,2.432 h 6.016 z" stroke-width="0" stroke-linejoin="miter" stroke-miterlimit="2" fill="#2b7ae5" stroke="#2b7ae5" transform="translate(5.684341886080802e-14 576.76496) translate(177.25554999999997 -24.941440000000004) scale(4.36) translate(-457.2105 22.304)"></path>
        <path id="path395371" style="font-style:normal;font-weight:normal;font-size:32px;line-height:1;font-family:'Brandmark Sans 23 Spectrum';font-variant-ligatures:none;text-align:center;text-anchor:middle" d="m 481.275,0 h 6.016 l 4.704,-22.304 h -6.048 l -1.824,8.8 -1.984,-3.968 -2.4,-2.432 4,8.096 -0.352,1.728 -6.08,-12.224 h -6.016 L 466.619,0 h 6.016 l 2.56,-12.224 2.048,4.128 -2.208,10.496 h -6.016 l 2.4,2.432 h 6.016 l 1.856,-8.8 z m 15.52,-17.472 -2.4,-2.432 -0.512,2.432 -4.192,19.872 h -6.016 l 2.4,2.432 h 6.016 z" stroke-width="0" stroke-linejoin="miter" stroke-miterlimit="2" fill="#2c73e6" stroke="#2c73e6" transform="translate(5.684341886080802e-14 576.76496) translate(261.87660999999986 -24.941440000000004) scale(4.36) translate(-466.619 22.304)"></path>
        <path id="path395373" style="font-style:normal;font-weight:normal;font-size:32px;line-height:1;font-family:'Brandmark Sans 23 Spectrum';font-variant-ligatures:none;text-align:center;text-anchor:middle" d="m 490.8415,0 h 9.984 c 6.176,0 12.192,-4.992 13.504,-11.136 1.312,-6.176 -2.656,-11.168 -8.8,-11.168 h -9.984 z m 26.08,-14.912 -2.4,-2.4 c 2.016,2.048 2.944,5.12 2.208,8.576 -1.312,6.144 -7.328,11.136 -13.504,11.136 h -9.952 l 2.4,2.432 h 9.984 c 6.144,0 12.192,-4.992 13.504,-11.168 0.736,-3.456 -0.192,-6.528 -2.24,-8.576 z m -18.816,8.992 2.208,-10.464 h 3.968 c 1.952,0 3.456,1.088 4,2.688 -0.48,-0.192 -1.024,-0.288 -1.6,-0.288 h -3.936 l -1.696,8.064 z m 5.92,-0.352 1.12,-5.28 h 3.328 c 0,0.128 -0.032,0.256 -0.064,0.416 -0.448,2.208 -2.272,4.128 -4.384,4.864 z" stroke-width="0" stroke-linejoin="miter" stroke-miterlimit="2" fill="#2d6be8" stroke="#2d6be8" transform="translate(5.684341886080802e-14 576.76496) translate(411.08670999999975 -24.941440000000004) scale(4.36) translate(-490.8415 22.304)"></path>
        <path id="path395375" style="font-style:normal;font-weight:normal;font-size:32px;line-height:1;font-family:'Brandmark Sans 23 Spectrum';font-variant-ligatures:none;text-align:center;text-anchor:middle" d="m 542.488,0 h 6.016 l -4.032,-22.304 h -6.016 L 525.368,0 h 6.016 l 1.728,-2.944 h 8.832 l 0.448,2.4 h -6.88 L 533.784,2.4 h -2.208 v 0.064 l -3.808,-0.064 2.4,2.432 h 6.016 l 1.76,-2.976 h 6.4 z m 10.816,4.832 -4,-22.304 -2.4,-2.432 0.416,2.432 3.584,19.872 h -6.016 l 2.4,2.432 z M 536.6,-8.864 l 3.264,-5.6 0.896,4.992 -0.352,0.608 z" stroke-width="0" stroke-linejoin="miter" stroke-miterlimit="2" fill="#2d63e9" stroke="#2d63e9" transform="translate(5.684341886080802e-14 576.76496) translate(605.22225 -24.941440000000004) scale(4.36) translate(-525.368 22.304)"></path>
        <path id="path395377" style="font-style:normal;font-weight:normal;font-size:32px;line-height:1;font-family:'Brandmark Sans 23 Spectrum';font-variant-ligatures:none;text-align:center;text-anchor:middle" d="m 549.9985,0 h 15.616 l 1.248,-5.92 h -3.776 l 2.432,-11.552 -2.4,-2.432 -2.944,13.984 h -2.912 l 3.424,-16.384 h -6.016 z m 21.664,-1.088 -2.4,-2.4 -0.512,2.4 -0.736,3.488 h -15.616 l 2.4,2.432 h 15.616 z" stroke-width="0" stroke-linejoin="miter" stroke-miterlimit="2" fill="#2e5cea" stroke="#2e5cea" transform="translate(5.684341886080802e-14 576.76496) translate(756.2112299999999 -24.941440000000004) scale(4.36) translate(-549.9985 22.304)"></path>
        <path id="path395379" style="font-style:normal;font-weight:normal;font-size:32px;line-height:1;font-family:'Brandmark Sans 23 Spectrum';font-variant-ligatures:none;text-align:center;text-anchor:middle" d="m 567.561,0 h 15.616 l 1.248,-5.92 h -3.776 l 2.432,-11.552 -2.4,-2.432 -2.944,13.984 h -2.912 l 3.424,-16.384 h -6.016 z m 21.664,-1.088 -2.4,-2.4 -0.512,2.4 -0.736,3.488 h -15.616 l 2.4,2.432 h 15.616 z" stroke-width="0" stroke-linejoin="miter" stroke-miterlimit="2" fill="#2f54eb" stroke="#2f54eb" transform="translate(5.684341886080802e-14 576.76496) translate(876.38373 -24.941440000000004) scale(4.36) translate(-567.561 22.304)"></path>
      </g>
      <g id="title" style="font-style:normal;font-weight:normal;font-size:72px;line-height:1;font-family:'Brandmark Script 2 Color Shadow';font-variant-ligatures:normal;text-align:center;text-anchor:middle" transform="translate(0 0)">
        <g id="path395382" aria-label="~f" transform="translate(0 286.90352000000007) translate(131.42156899999975 -189.04000000000002) scale(6) translate(-447.16956 47.808)"> <path class="c1" d="M143.54456,107.34543c-3.69025,7.4002-9.84727,9.92115-18.1455,10.22461 c-1.1118,0.04066-2.21284,0.07551-3.30349,0.04014c-0.90755,0.4599-1.6918,3.5089-1.29625,4.04382 c1.1652,0.74632,3.31746,1.20283,5.9679,1.17288c2.62428-0.02964,5.14962-0.43768,7.95924-1.38081 c4.6131-1.54852,9.13129-4.52631,11.9138-9.56451C147.01839,110.59406,144.81866,107.81609,143.54456,107.34543z" transform="translate(393.852931 -125.196965)" stroke-width="0" stroke-linejoin="miter" stroke-miterlimit="2" fill="#2a82e4" stroke="#2a82e4"></path> <path class="c1" d="M121.2348,123.55036c0.74069,0.57022,1.11569,1.61671,1.42793,2.87661 c0.6606,2.66563,0.41748,6.35867-0.10326,8.47226c-0.96857,3.9312-3.45475,7.46193-4.86549,8.59317 c-0.40149,0.32195-1.29543,4.44737-0.38673,4.92065c0.60538,0.31529,1.97675-0.34666,3.57411-1.62517 c2.7847-3.06602,5.40691-7.33807,6.24524-11.43221c0.74551-3.64087,0.84946-8.85596-0.35938-12.52881 c-0.47533-1.44418-1.04257-2.67367-1.89596-3.43655C124.33118,119.72964,121.60422,122.42659,121.2348,123.55036z" transform="translate(393.852931 -125.196965)" stroke-width="0" stroke-linejoin="miter" stroke-miterlimit="2" fill="#2a82e4" stroke="#2a82e4"></path> <path class="c2" d="M140.65204,77.38974c-4.2536-0.05713-7.85387,3.05209-10.65695,6.98527 c-2.77339,3.89151-5.46967,9.64574-7.764,15.40987c-0.64851,1.62928-1.29673,3.23595-1.87305,4.82422 c-1.02787,2.83266-1.95021,5.54005-2.66406,7.84863c-2.09052,6.76064-7.18549,23.96365-6.62402,31.03467 c0.26184,3.29764,1.82312,6.2897,4.40662,6.26353c0.53662-0.00543,2.55348,0.00473,5.40479-2.96805 c-1.39696,0.99208-2.4576,1.14664-2.89259,0.79219c-0.41917-0.34154-0.92451-1.2-0.29478-4.08768 c0.08382-0.38861,0.60734-2.27296,1.22675-4.52087c0.42967-1.55934,0.9869-3.55247,1.43784-5.09283 c0.67493-2.30557,1.46581-4.68448,2.30417-7.45172c0.89594-2.95729,1.81856-6.03404,2.73633-8.85693 c0.11785-0.21465,0.21345-0.57677,0.28809-0.86377c0.56832-1.66212,1.52915-4.59855,1.72333-5.19504 c0.34338-1.05482,0.60252-2.0179,0.9423-3.04045c0.57947-1.74381,1.2354-3.51537,1.79823-5.15758 c0.74625-2.17733,1.31625-3.92812,2.16388-6.20389c0.14986-0.40236,0.34879-0.88896,0.50688-1.30216 c1.10945-2.89955,2.43538-5.98904,3.91301-8.58371c1.48009-2.59896,3.11241-4.70141,4.869-5.58456 c1.89702,0.1153,4.08925,1.88446,4.32443,4.87663c0.46216-1.38657,0.82791-2.86347,0.70833-4.33891 C146.42369,79.5499,144.33437,77.43919,140.65204,77.38974z" transform="translate(393.852931 -125.196965)" stroke-width="0" stroke-linejoin="miter" stroke-miterlimit="2" fill="#2f54eb" stroke="#2f54eb"></path> <path class="c2" d="M57.35538,108.42519c-1.62406-0.16699-3.93327-3.10106-4.03322-6.11182 c-0.19512-5.87711,4.79949-9.40481,10.65501-10.44939c8.41955-1.50198,19.30876,0.74952,27.65043,2.59231 c-7.07752-1.34886-16.42659-1.49941-20.89301-0.59179c-4.79906,0.97521-8.73289,3.19975-11.20475,6.74792 C57.69726,103.24299,57.03815,105.96678,57.35538,108.42519z" transform="translate(393.852931 -125.196965)" stroke-width="0" stroke-linejoin="miter" stroke-miterlimit="2" fill="#2f54eb" stroke="#2f54eb"></path> <path class="c1" d="M145.4397,82.03346c-0.9986-1.55182-3.41701-0.68094-3.83595-0.39456 c0.19403,1.98621-0.92448,5.38901-2.78337,8.46103c-1.66782,2.75631-3.76532,5.29369-6.50549,7.00938 c-2.09061,1.30899-4.54301,2.25737-7.57354,2.51271c-0.8378,0.07058-1.66579,0.14114-2.51025,0.16286 c-11.80875,0.30363-24.06445-3.93412-30.60352-5.32861c-5.86035-1.26166-15.70734-2.22078-21.01892-1.33791 c-5.40741,0.89874-8.78174,2.30811-11.06897,4.78046c-3.63843,3.93286-3.33584,8.72607-2.18429,10.5263 c0.69006-3.17505,3.06051-6.36138,6.86057-8.38482c4.14238-2.20568,9.01309-2.77321,14.29986-2.48281 c12.96169,0.71198,28.6198,6.71542,41.84223,7.05161c0.83295,0.02118,1.69117,0.0144,2.50677-0.01076 c2.72096-0.08389,5.12328-0.54302,7.28619-1.28514c5.22501-1.79276,9.40698-5.53767,12.43469-10.07924 c1.53516-2.30273,2.52354-4.62617,3.34251-6.71845C146.44395,84.13789,145.91895,82.77827,145.4397,82.03346z" transform="translate(393.852931 -125.196965)" stroke-width="0" stroke-linejoin="miter" stroke-miterlimit="2" fill="#2a82e4" stroke="#2a82e4"></path> <radialGradient id="9f9071d8-e81f-42ec-97f5-3bf0ba00bdd2" cx="71.30657" cy="109.8923" r="25.22402" gradientUnits="userSpaceOnUse" transform="translate(393.852931 -125.196965)"> <stop offset="0.64256" style="stop-color:#6419e0;stop-opacity:0"></stop> <stop offset="0.91278" style="stop-color:#6419e0"></stop> </radialGradient> <path class="highlight" fill="url(#9f9071d8-e81f-42ec-97f5-3bf0ba00bdd2)" d="M59.53969,97.8988c2.28723-2.47235,5.66156-3.88171,11.06897-4.78046 c5.31116-0.88281,15.15695,0.07605,21.01743,1.33762c-8.34149-1.84268-19.22986-4.09387-27.64889-2.59198 c-5.85553,1.04459-10.85013,4.5723-10.65503,10.4494c0.09998,3.01074,2.40918,5.94482,4.03323,6.11182 C56.20385,106.62488,55.90126,101.83167,59.53969,97.8988z" transform="translate(393.852931 -125.196965)" stroke-width="0" stroke-linejoin="miter" stroke-miterlimit="2" opacity="0.25"></path> <linearGradient id="597b75aa-cf85-4dd8-a9e9-aea2502dffac" gradientUnits="userSpaceOnUse" x1="132.60518" y1="88.63385" x2="110.89198" y2="155.43094"> <stop offset="0.19257" style="stop-color:#6419e0"></stop> <stop offset="0.26978" style="stop-color:#6419e0;stop-opacity:0.68377"></stop> <stop offset="0.43672" style="stop-color:#6419e0;stop-opacity:0"></stop> <stop offset="0.73369" style="stop-color:#6419e0;stop-opacity:0"></stop> <stop offset="0.97357" style="stop-color:#6419e0"></stop> </linearGradient> <path class="highlight" fill="url(#597b75aa-cf85-4dd8-a9e9-aea2502dffac)" d="M120.35805,104.6091c-1.02786,2.83267-1.9502,5.54004-2.66406,7.84863 c-2.09052,6.76062-7.18549,23.96365-6.62402,31.03467c0.26184,3.29764,1.82312,6.2897,4.40662,6.26355 c0.53662-0.00543,2.55347,0.00473,5.40479-2.96805c-1.39697,0.99207-2.45761,1.14664-2.89261,0.79218 c-0.41916-0.34155-0.9245-1.19998-0.29477-4.08768c0.08383-0.38861,0.60733-2.27298,1.22675-4.52087 c0.42966-1.55933,0.98691-3.55246,1.43784-5.09283c0.67493-2.30557,1.46579-4.68448,2.30417-7.45172 c0.89594-2.95731,1.81854-6.03406,2.73633-8.85693c0.11786-0.21466,0.21344-0.57678,0.28809-0.86377 c0.56833-1.66211,1.52914-4.59854,1.72333-5.19504c0.34338-1.05481,0.60251-2.01791,0.94229-3.04047 c0.57947-1.7438,1.23541-3.51535,1.79825-5.15756c-2.1629,0.74213-4.56525,1.20123-7.28619,1.28513 C122.04921,104.6235,121.19099,104.63028,120.35805,104.6091z" transform="translate(393.852931 -125.196965)" stroke-width="0" stroke-linejoin="miter" stroke-miterlimit="2" opacity="0.25"></path> <linearGradient id="370955ff-18e1-4a5e-9403-c1f7360ff16b" gradientUnits="userSpaceOnUse" x1="147.73692" y1="56.94255" x2="124.44067" y2="118.70471"> <stop offset="0.28389" style="stop-color:#6419e0"></stop> <stop offset="0.3467" style="stop-color:#6419e0;stop-opacity:0.68377"></stop> <stop offset="0.48251" style="stop-color:#6419e0;stop-opacity:0"></stop> <stop offset="0.59813" style="stop-color:#6419e0;stop-opacity:0"></stop> <stop offset="0.77772" style="stop-color:#6419e0"></stop> </linearGradient> <path class="highlight" fill="url(#370955ff-18e1-4a5e-9403-c1f7360ff16b)" d="M146.63655,82.17661c-0.21286-2.62671-2.30219-4.73743-5.9845-4.78687 c-4.2536-0.05713-7.85388,3.05209-10.65695,6.98526c-2.77341,3.89151-5.46967,9.64575-7.76401,15.40988 c0.84445-0.0217,1.67245-0.09229,2.51025-0.16287c3.03055-0.25531,5.48294-1.2037,7.57355-2.5127 c0.14984-0.40234,0.34879-0.88898,0.50687-1.30215c1.10947-2.89957,2.43539-5.98904,3.91302-8.58371 c1.48007-2.59897,3.11237-4.70139,4.86896-5.58453c0.41895-0.28641,2.83737-1.15729,3.83597,0.39453 c0.47925,0.74481,1.00424,2.10443,0.48849,4.48206C146.39037,85.12894,146.75612,83.65204,146.63655,82.17661z" transform="translate(393.852931 -125.196965)" stroke-width="0" stroke-linejoin="miter" stroke-miterlimit="2" opacity="0.25"></path> <linearGradient id="797de4a4-d7d2-4dc6-a268-ee2064c47da4" gradientUnits="userSpaceOnUse" x1="52.08534" y1="81.6618" x2="160.00093" y2="110.80221"> <stop offset="0.03616" style="stop-color:#6419e0"></stop> <stop offset="0.12099" style="stop-color:#6419e0;stop-opacity:0.68377"></stop> <stop offset="0.30441" style="stop-color:#6419e0;stop-opacity:0"></stop> <stop offset="0.70686" style="stop-color:#6419e0;stop-opacity:0"></stop> <stop offset="0.884" style="stop-color:#6419e0"></stop> </linearGradient> <path class="highlight" fill="url(#797de4a4-d7d2-4dc6-a268-ee2064c47da4)" d="M145.4397,82.03346c-0.9986-1.55182-3.41701-0.68094-3.83595-0.39456 c0.19403,1.98621-0.92448,5.38901-2.78337,8.46103c-1.66782,2.75631-3.76532,5.29369-6.50549,7.00938 c-2.09061,1.30899-4.54301,2.25737-7.57354,2.51271c-0.8378,0.07058-1.66579,0.14114-2.51025,0.16286 c-11.80875,0.30363-24.06445-3.93412-30.60352-5.32861c-5.86035-1.26166-15.70734-2.22078-21.01892-1.33791 c-5.40741,0.89874-8.78174,2.30811-11.06897,4.78046c-3.63843,3.93286-3.33584,8.72607-2.18429,10.5263 c0.69006-3.17505,3.06051-6.36138,6.86057-8.38482c4.14238-2.20568,9.01309-2.77321,14.29986-2.48281 c12.96169,0.71198,28.6198,6.71542,41.84223,7.05161c0.83295,0.02118,1.69117,0.0144,2.50677-0.01076 c2.72096-0.08389,5.12328-0.54302,7.28619-1.28514c5.22501-1.79276,9.40698-5.53767,12.43469-10.07924 c1.53516-2.30273,2.52354-4.62617,3.34251-6.71845C146.44395,84.13789,145.91895,82.77827,145.4397,82.03346z" transform="translate(393.852931 -125.196965)" stroke-width="0" stroke-linejoin="miter" stroke-miterlimit="2" opacity="0.25"></path> <radialGradient id="d617e5f3-94ac-48b4-b263-8f58d2408577" cx="115.10083" cy="110.8939" r="50.61577" gradientUnits="userSpaceOnUse" transform="translate(393.852931 -125.196965)"> <stop offset="0.60661" style="stop-color:#6419e0;stop-opacity:0"></stop> <stop offset="0.98494" style="stop-color:#6419e0"></stop> </radialGradient> <path class="highlight" fill="url(#d617e5f3-94ac-48b4-b263-8f58d2408577)" d="M145.4397,82.03348c-0.9986-1.55182-3.41699-0.68097-3.83594-0.39459 c0.19403,1.98621-0.9245,5.38904-2.78339,8.46106c-1.66779,2.75629-3.76532,5.29364-6.50549,7.0094 c-2.09064,1.30896-4.54302,2.25732-7.57354,2.5127c-0.83777,0.07056-1.66577,0.14111-2.51025,0.16284 c-4.57849,0.11774-9.22034-0.4502-13.57391-1.26746v4.68488c4.01691,0.75482,7.95795,1.31165,11.70087,1.4068 c0.83295,0.02118,1.69116,0.0144,2.50677-0.01074c2.72095-0.08392,5.12329-0.54303,7.28619-1.28516 c5.22498-1.79279,9.40698-5.53766,12.43469-10.07922c1.53516-2.30273,2.52356-4.62616,3.34253-6.71844 C146.44397,84.13791,145.91895,82.77829,145.4397,82.03348z" transform="translate(393.852931 -125.196965)" stroke-width="0" stroke-linejoin="miter" stroke-miterlimit="2" opacity="0.25"></path> <linearGradient id="0184e3db-30b1-46c9-9a67-0f6cc22fa0d6" gradientUnits="userSpaceOnUse" x1="118.65055" y1="124.73016" x2="150.48834" y2="108.87418"> <stop offset="0.12684" style="stop-color:#6419e0"></stop> <stop offset="0.29007" style="stop-color:#6419e0;stop-opacity:0.68377"></stop> <stop offset="0.64301" style="stop-color:#6419e0;stop-opacity:0"></stop> </linearGradient> <path class="highlight" fill="url(#0184e3db-30b1-46c9-9a67-0f6cc22fa0d6)" d="M143.54457,107.34543c-3.69028,7.40021-9.84729,9.92114-18.14551,10.22461 c-0.52869,1.62613-1.06063,3.34184-1.58648,5.06507c0.8815,0.13605,1.87463,0.20397,2.95464,0.19176 c2.62427-0.02963,5.14963-0.43768,7.95923-1.3808c4.6131-1.54852,9.13129-4.52634,11.91382-9.56451 C147.01839,110.59406,144.81865,107.8161,143.54457,107.34543z" transform="translate(393.852931 -125.196965)" stroke-width="0" stroke-linejoin="miter" stroke-miterlimit="2" opacity="0.25"></path> <linearGradient id="6f3700d4-83d7-43cd-95d0-ead84bdeae17" gradientUnits="userSpaceOnUse" x1="134.78413" y1="104.60376" x2="112.87132" y2="162.6982"> <stop offset="0.31191" style="stop-color:#6419e0"></stop> <stop offset="0.37327" style="stop-color:#6419e0;stop-opacity:0.68377"></stop> <stop offset="0.50595" style="stop-color:#6419e0;stop-opacity:0"></stop> <stop offset="0.63842" style="stop-color:#6419e0;stop-opacity:0"></stop> <stop offset="0.77772" style="stop-color:#6419e0"></stop> </linearGradient> <path class="highlight" fill="url(#6f3700d4-83d7-43cd-95d0-ead84bdeae17)" d="M123.81258,122.63511c-0.38724,1.26779-0.76981,2.53741-1.14985,3.79186 c0.66058,2.66565,0.41748,6.35867-0.10327,8.47226c-0.96857,3.93118-3.45474,7.46191-4.86548,8.59317 c-0.62973,2.8877-0.12439,3.74612,0.29477,4.08768c0.435,0.35446,1.49564,0.19989,2.89261-0.79218 c2.7847-3.06604,5.40692-7.3381,6.24524-11.43222c0.74551-3.64087,0.84946-8.85596-0.35938-12.52881 C125.68733,122.83908,124.69399,122.77116,123.81258,122.63511z" transform="translate(393.852931 -125.196965)" stroke-width="0" stroke-linejoin="miter" stroke-miterlimit="2" opacity="0.25"></path> </g>
        <g id="path395384" aria-label="_" transform="translate(0 286.90352000000007) translate(686.4962090000002 60.3541586) scale(6) translate(-539.682 6.2423069)"> <path class="c1" d="M100.18806,126.54505c2.4108-0.03646,8.20914-0.11655,11.00346-0.28713 c4.5244-0.27618,6.4772-2.2487,5.87572-4.78219c-0.27473-1.1572-0.8961-1.88066-1.21461-2.1263 c-0.7474,1.44444-1.79918,2.55742-2.95641,3.42805C109.5948,125.26131,104.87821,125.80001,100.18806,126.54505z" transform="translate(456.855438 -125.5635469)" stroke-width="0" stroke-linejoin="miter" stroke-miterlimit="2" fill="#2a82e4" stroke="#2a82e4"></path> <path class="c2" d="M84.0255,128.06233c0.73492-0.66919,5.78807-1.22839,7.3736-1.29478 c2.08149-0.08714,8.68479-0.22086,8.78897-0.2225c3.16136-0.04961,10.81391-0.41902,14.14014-2.41237 c1.86668-1.11867,2.35405-3.15503,1.52444-4.78325c-0.92451,0.37383-2.76209,0.79169-4.53036,0.93748 c-2.91872,0.24062-5.54652,0.30428-7.91724,0.22651c-7.80192-0.25597-12.89712-1.6853-17.03587-1.01501 c-1.91841,0.31069-3.08071,1.22807-3.49473,3.62217C82.59949,124.71054,83.57882,127.69787,84.0255,128.06233z" transform="translate(456.855438 -125.5635469)" stroke-width="0" stroke-linejoin="miter" stroke-miterlimit="2" fill="#2f54eb" stroke="#2f54eb"></path> <radialGradient id="a906cfc3-3f6a-4984-b8d5-7aa52ea7e735" cx="110.59988" cy="119.5358" r="15.08833" gradientUnits="userSpaceOnUse" transform="translate(456.855438 -125.5635469)"> <stop offset="0.41796" style="stop-color:#6419e0;stop-opacity:0"></stop> <stop offset="0.56436" style="stop-color:#6419e0"></stop> </radialGradient> <path class="highlight" fill="url(#a906cfc3-3f6a-4984-b8d5-7aa52ea7e735)" d="M117.0672,121.47572c-0.27466-1.15717-0.896-1.88068-1.2146-2.12628 c0.82959,1.62823,0.34229,3.66455-1.52441,4.78326c-3.32617,1.99335-10.97876,2.36273-14.14014,2.41235 c2.41089-0.0365,8.20923-0.11658,11.00342-0.28717C115.71588,125.9817,117.66876,124.00922,117.0672,121.47572z" transform="translate(456.855438 -125.5635469)" stroke-width="0" stroke-linejoin="miter" stroke-miterlimit="2" opacity="0.25"></path> <linearGradient id="9408d872-3d6d-4337-85de-61b4d30d3b71" gradientUnits="userSpaceOnUse" x1="73.7945" y1="123.98477" x2="120.81491" y2="122.88274"> <stop offset="0.0286" style="stop-color:#6419e0"></stop> <stop offset="0.13988" style="stop-color:#6419e0;stop-opacity:0.68377"></stop> <stop offset="0.38048" style="stop-color:#6419e0;stop-opacity:0"></stop> <stop offset="0.63475" style="stop-color:#6419e0;stop-opacity:0"></stop> <stop offset="1" style="stop-color:#6419e0"></stop> </linearGradient> <path class="highlight" fill="url(#9408d872-3d6d-4337-85de-61b4d30d3b71)" d="M84.0255,128.06233c0.73492-0.66919,5.78807-1.22839,7.3736-1.29478 c2.08149-0.08714,8.68479-0.22086,8.78897-0.2225c3.16136-0.04961,10.81391-0.41902,14.14014-2.41237 c1.86668-1.11867,2.35405-3.15503,1.52444-4.78325c-0.92451,0.37383-2.76209,0.79169-4.53036,0.93748 c-2.91872,0.24062-5.54652,0.30428-7.91724,0.22651c-7.80192-0.25597-12.89712-1.6853-17.03587-1.01501 c-1.91841,0.31069-3.08071,1.22807-3.49473,3.62217C82.59949,124.71054,83.57882,127.69787,84.0255,128.06233z" transform="translate(456.855438 -125.5635469)" stroke-width="0" stroke-linejoin="miter" stroke-miterlimit="2" opacity="0.25"></path> </g>
        </g>
      <image xlink:href="" id="icon" x="0" y="0" style="display: none;"></image>
    </g>
  </g>
</svg>